<svg width="833" height="775" viewBox="0 0 833 775" fill="none" xmlns="http://www.w3.org/2000/svg">
<circle cx="379.067" cy="168.058" r="168.058" fill="url(#paint0_linear_202_2)"/>
<path d="M495.316 179.471C495.316 161.453 509.923 146.846 527.942 146.846C557.972 146.846 582.317 171.191 582.317 201.221V279.355H495.316V179.471Z" fill="url(#paint1_linear_202_2)"/>
<path d="M246.359 256.601C246.359 219.64 276.322 189.677 313.283 189.677C324.372 189.677 333.36 198.666 333.36 209.754V279.355H246.359V256.601Z" fill="url(#paint2_linear_202_2)"/>
<path d="M333.36 198.377C333.36 153.654 369.615 117.399 414.338 117.399C459.061 117.399 495.316 153.654 495.316 198.377V279.355H333.36V198.377Z" fill="url(#paint3_linear_202_2)"/>
<path d="M527.44 234.516C527.44 209.752 547.515 189.677 572.279 189.677C597.043 189.677 617.118 209.752 617.118 234.516V279.355H527.44V234.516Z" fill="url(#paint4_linear_202_2)"/>
<path d="M306.591 225.147C306.591 195.208 330.861 170.938 360.799 170.938C390.738 170.938 415.008 195.208 415.008 225.147V279.355H306.591V225.147Z" fill="url(#paint5_linear_202_2)"/>
<path d="M222.267 261.955C222.267 252.345 230.057 244.555 239.667 244.555C249.277 244.555 257.067 252.345 257.067 261.955V279.355H235.317C228.11 279.355 222.267 273.512 222.267 266.305V261.955Z" fill="url(#paint6_linear_202_2)"/>
<path d="M554.209 234.516C554.209 209.752 534.134 189.677 509.37 189.677C484.606 189.677 464.531 209.752 464.531 234.516V279.355H520.58C539.153 279.355 554.209 264.299 554.209 245.726V234.516Z" fill="url(#paint7_linear_202_2)"/>
<path d="M645.226 255.932C645.226 242.995 634.739 232.508 621.802 232.508C608.866 232.508 598.379 242.995 598.379 255.932V279.355H627.658C637.36 279.355 645.226 271.49 645.226 261.788V255.932Z" fill="url(#paint8_linear_202_2)"/>
<path d="M130.532 356.966C167.113 290.197 245.501 258.228 318.343 280.369L339.03 286.657C363.236 294.015 388.835 295.558 413.749 291.161L549.456 267.213C629.75 253.044 707.943 301.205 731.416 379.289L769.058 504.504L833 772.744L502.343 857.018C489.363 860.326 476.02 862 462.625 862H400.551C389.741 862 378.957 860.91 368.365 858.746L0 783.5L48.6908 522.965C51.8137 506.254 57.5665 490.145 65.7347 475.236L130.532 356.966Z" fill="url(#paint9_linear_202_2)"/>
<path d="M181.132 285.67C234.874 266.495 284.394 276.266 335.224 298.913C454.321 351.976 539.944 212.874 683.869 277.06" stroke="url(#paint10_linear_202_2)" stroke-width="64.3284" stroke-linecap="round" stroke-linejoin="round"/>
<path d="M268.985 417.839C268.985 401.915 281.894 389.006 297.818 389.006C324.358 389.006 345.873 410.521 345.873 437.061V506.113H268.985V417.839Z" fill="url(#paint11_linear_202_2)"/>
<path d="M48.9657 493.24C48.9657 460.575 75.4457 434.095 108.111 434.095C117.91 434.095 125.854 442.039 125.854 451.839V513.349H48.9657V493.24Z" fill="url(#paint12_linear_202_2)"/>
<path d="M125.854 434.547C125.854 395.023 157.895 362.982 197.419 362.982C236.944 362.982 268.985 395.023 268.985 434.547V506.113L125.854 513.349V434.547Z" fill="url(#paint13_linear_202_2)"/>
<path d="M321.032 475.949C321.032 459.29 334.537 445.785 351.196 445.785C367.855 445.785 381.36 459.29 381.36 475.949V506.113H321.032V475.949Z" fill="url(#paint14_linear_202_2)"/>
<path d="M27.6735 490.735C27.6735 482.242 34.5583 475.357 43.0512 475.357C51.544 475.357 58.4288 482.242 58.4288 490.735V506.113H39.2068C32.8371 506.113 27.6735 500.949 27.6735 494.579V490.735Z" fill="url(#paint15_linear_202_2)"/>
<path d="M418.03 485.412C418.03 473.979 408.762 464.711 397.329 464.711C385.896 464.711 376.628 473.979 376.628 485.412V506.113H402.504C411.079 506.113 418.03 499.161 418.03 490.587V485.412Z" fill="url(#paint16_linear_202_2)"/>
<path d="M206.291 454.065C206.291 425.32 229.593 402.018 258.339 402.018C287.084 402.018 310.386 425.32 310.386 454.065V506.113H206.291V454.065Z" fill="url(#paint17_linear_202_2)"/>
<path d="M209.84 485.206C209.84 440.983 173.99 405.133 129.767 405.133C116.5 405.133 105.745 415.888 105.745 429.155V513.959H209.84V485.206Z" fill="url(#paint18_linear_202_2)"/>
<path d="M177.901 475.949C177.901 459.29 191.406 445.785 208.065 445.785C224.724 445.785 238.229 459.29 238.229 475.949V506.113H177.901V475.949Z" fill="url(#paint19_linear_202_2)"/>
<path d="M290.277 486.595C290.277 475.815 299.015 467.077 309.795 467.077C320.574 467.077 329.312 475.815 329.312 486.595V506.112H290.277V486.595Z" fill="url(#paint20_linear_202_2)"/>
<path d="M45.3638 522.528C74.3116 539.414 154.24 563.055 242.369 522.528C352.532 471.87 462.694 553.888 530.239 561.929C597.784 569.97 647.638 506.446 690.256 522.528" stroke="url(#paint21_linear_202_2)" stroke-width="64.3284" stroke-linecap="round" stroke-linejoin="round"/>
<path d="M771.47 506.297C739.038 504.42 662.916 516.107 617.886 577.862C561.599 655.056 508.528 581.078 420.881 642.19C333.233 703.302 289.007 636.561 230.308 705.714" stroke="url(#paint22_linear_202_2)" stroke-width="64.3284" stroke-linecap="round" stroke-linejoin="round"/>
<path d="M300.201 808.288C300.201 789.283 315.678 773.875 334.769 773.875C353.86 773.875 369.336 789.283 369.336 808.288V842.701H300.201V808.288Z" fill="url(#paint23_linear_202_2)"/>
<path d="M58.2295 822.422C58.2295 811.223 67.3495 802.143 78.5996 802.143C89.8497 802.143 98.9697 811.223 98.9697 822.422V842.701H78.5086C67.3088 842.701 58.2295 833.622 58.2295 822.422Z" fill="url(#paint24_linear_202_2)"/>
<path d="M84.1551 780.43C84.1551 763.235 98.1575 749.295 115.43 749.295C149.976 749.295 177.981 777.174 177.981 811.566V842.701H84.1551V780.43Z" fill="url(#paint25_linear_202_2)"/>
<path d="M158.228 792.311C158.228 736.651 203.552 691.53 259.461 691.53C287.416 691.53 310.078 714.09 310.078 741.92V842.701H158.228V792.311Z" fill="url(#paint26_linear_202_2)"/>
<path d="M327.709 786.834C327.709 755.979 302.696 730.966 271.842 730.966C240.987 730.966 215.974 755.979 215.974 786.834V842.702H327.709V786.834Z" fill="url(#paint27_linear_202_2)"/>
<path d="M222.546 795.597C222.546 769.582 201.457 748.493 175.442 748.493C149.427 748.493 128.338 769.582 128.338 795.597V842.702H222.546V795.597Z" fill="url(#paint28_linear_202_2)"/>
<path d="M187.492 807.647C187.492 788.287 203.187 772.593 222.547 772.593C241.906 772.593 257.601 788.287 257.601 807.647V842.702H187.492V807.647Z" fill="url(#paint29_linear_202_2)"/>
<path d="M310.182 830.567C310.182 808.229 292.073 790.12 269.735 790.12C263.033 790.12 257.601 795.553 257.601 802.254V842.702H310.182V830.567Z" fill="url(#paint30_linear_202_2)"/>
<path d="M272.937 799.868C272.937 776.212 253.674 757.035 229.912 757.035C206.149 757.035 186.886 776.212 186.886 799.868V842.701H272.937V799.868Z" fill="url(#paint31_linear_202_2)"/>
<path d="M574.115 817.46C574.115 803.52 562.763 792.219 548.761 792.219C534.758 792.219 523.406 803.52 523.406 817.46V842.701H548.874C562.814 842.701 574.115 831.401 574.115 817.46Z" fill="url(#paint32_linear_202_2)"/>
<path d="M541.846 765.194C541.846 743.79 524.417 726.44 502.918 726.44C459.92 726.44 425.063 761.141 425.063 803.948V842.701H541.846V765.194Z" fill="url(#paint33_linear_202_2)"/>
<path d="M449.649 779.981C449.649 710.703 393.235 654.541 323.646 654.541C288.851 654.541 260.644 682.622 260.644 717.261V842.701H449.649V779.981Z" fill="url(#paint34_linear_202_2)"/>
<path d="M238.699 773.164C238.699 734.759 269.832 703.626 308.236 703.626C346.641 703.626 377.774 734.759 377.774 773.164V842.701H238.699V773.164Z" fill="url(#paint35_linear_202_2)"/>
<path d="M369.593 784.072C369.593 751.691 395.842 725.442 428.222 725.442C460.603 725.442 486.852 751.691 486.852 784.072V842.701H369.593V784.072Z" fill="url(#paint36_linear_202_2)"/>
<path d="M413.224 799.07C413.224 774.973 393.69 755.439 369.593 755.439C345.496 755.439 325.961 774.973 325.961 799.07V842.701H413.224V799.07Z" fill="url(#paint37_linear_202_2)"/>
<path d="M260.514 827.598C260.514 799.794 283.054 777.254 310.858 777.254C319.199 777.254 325.961 784.016 325.961 792.357V842.701H260.514V827.598Z" fill="url(#paint38_linear_202_2)"/>
<defs>
<linearGradient id="paint0_linear_202_2" x1="379.067" y1="0" x2="379.067" y2="336.116" gradientUnits="userSpaceOnUse">
<stop stop-color="white"/>
<stop offset="1" stop-color="#FFF61B"/>
</linearGradient>
<linearGradient id="paint1_linear_202_2" x1="566.499" y1="146.846" x2="476.998" y2="245.21" gradientUnits="userSpaceOnUse">
<stop stop-color="#9EFF00"/>
<stop offset="1" stop-color="#2EA7DB"/>
</linearGradient>
<linearGradient id="paint2_linear_202_2" x1="317.542" y1="189.677" x2="263.213" y2="277.905" gradientUnits="userSpaceOnUse">
<stop stop-color="#9EFF00"/>
<stop offset="1" stop-color="#2EA7DB"/>
</linearGradient>
<linearGradient id="paint3_linear_202_2" x1="465.87" y1="117.399" x2="369.117" y2="279.355" gradientUnits="userSpaceOnUse">
<stop stop-color="#9EFF00"/>
<stop offset="1" stop-color="#2EA7DB"/>
</linearGradient>
<linearGradient id="paint4_linear_202_2" x1="600.813" y1="189.677" x2="547.239" y2="279.355" gradientUnits="userSpaceOnUse">
<stop stop-color="#9EFF00"/>
<stop offset="1" stop-color="#2EA7DB"/>
</linearGradient>
<linearGradient id="paint5_linear_202_2" x1="395.295" y1="170.938" x2="330.527" y2="279.355" gradientUnits="userSpaceOnUse">
<stop stop-color="#9EFF00"/>
<stop offset="1" stop-color="#2EA7DB"/>
</linearGradient>
<linearGradient id="paint6_linear_202_2" x1="250.74" y1="244.555" x2="229.95" y2="279.355" gradientUnits="userSpaceOnUse">
<stop stop-color="#9EFF00"/>
<stop offset="1" stop-color="#2EA7DB"/>
</linearGradient>
<linearGradient id="paint7_linear_202_2" x1="480.836" y1="189.677" x2="534.41" y2="279.355" gradientUnits="userSpaceOnUse">
<stop stop-color="#9EFF00"/>
<stop offset="1" stop-color="#2EA7DB"/>
</linearGradient>
<linearGradient id="paint8_linear_202_2" x1="606.897" y1="232.508" x2="634.883" y2="279.355" gradientUnits="userSpaceOnUse">
<stop stop-color="#9EFF00"/>
<stop offset="1" stop-color="#2EA7DB"/>
</linearGradient>
<linearGradient id="paint9_linear_202_2" x1="97.3636" y1="403.31" x2="649.173" y2="1025.13" gradientUnits="userSpaceOnUse">
<stop stop-color="#003471"/>
<stop offset="1" stop-color="#27FFF2"/>
</linearGradient>
<linearGradient id="paint10_linear_202_2" x1="594.226" y1="258.108" x2="578.034" y2="352.402" gradientUnits="userSpaceOnUse">
<stop stop-color="#9EFF00"/>
<stop offset="1" stop-color="#2EA7DB"/>
</linearGradient>
<linearGradient id="paint11_linear_202_2" x1="347.056" y1="362.982" x2="302.465" y2="556.753" gradientUnits="userSpaceOnUse">
<stop stop-color="#9EFF00"/>
<stop offset="1" stop-color="#2EA7DB"/>
</linearGradient>
<linearGradient id="paint12_linear_202_2" x1="347.056" y1="362.982" x2="302.465" y2="556.753" gradientUnits="userSpaceOnUse">
<stop stop-color="#9EFF00"/>
<stop offset="1" stop-color="#2EA7DB"/>
</linearGradient>
<linearGradient id="paint13_linear_202_2" x1="347.056" y1="362.982" x2="302.465" y2="556.753" gradientUnits="userSpaceOnUse">
<stop stop-color="#9EFF00"/>
<stop offset="1" stop-color="#2EA7DB"/>
</linearGradient>
<linearGradient id="paint14_linear_202_2" x1="347.056" y1="362.982" x2="302.465" y2="556.753" gradientUnits="userSpaceOnUse">
<stop stop-color="#9EFF00"/>
<stop offset="1" stop-color="#2EA7DB"/>
</linearGradient>
<linearGradient id="paint15_linear_202_2" x1="347.056" y1="362.982" x2="302.465" y2="556.753" gradientUnits="userSpaceOnUse">
<stop stop-color="#9EFF00"/>
<stop offset="1" stop-color="#2EA7DB"/>
</linearGradient>
<linearGradient id="paint16_linear_202_2" x1="347.056" y1="362.982" x2="302.465" y2="556.753" gradientUnits="userSpaceOnUse">
<stop stop-color="#9EFF00"/>
<stop offset="1" stop-color="#2EA7DB"/>
</linearGradient>
<linearGradient id="paint17_linear_202_2" x1="273.179" y1="402.018" x2="228.331" y2="539.255" gradientUnits="userSpaceOnUse">
<stop stop-color="#9EFF00"/>
<stop offset="1" stop-color="#2EA7DB"/>
</linearGradient>
<linearGradient id="paint18_linear_202_2" x1="273.179" y1="402.018" x2="228.331" y2="539.255" gradientUnits="userSpaceOnUse">
<stop stop-color="#9EFF00"/>
<stop offset="1" stop-color="#2EA7DB"/>
</linearGradient>
<linearGradient id="paint19_linear_202_2" x1="227.261" y1="445.785" x2="191.221" y2="506.113" gradientUnits="userSpaceOnUse">
<stop stop-color="#9EFF00"/>
<stop offset="1" stop-color="#2EA7DB"/>
</linearGradient>
<linearGradient id="paint20_linear_202_2" x1="322.215" y1="467.077" x2="298.895" y2="506.112" gradientUnits="userSpaceOnUse">
<stop stop-color="#9EFF00"/>
<stop offset="1" stop-color="#2EA7DB"/>
</linearGradient>
<linearGradient id="paint21_linear_202_2" x1="573.003" y1="506.113" x2="568.998" y2="582.6" gradientUnits="userSpaceOnUse">
<stop stop-color="#9EFF00"/>
<stop offset="1" stop-color="#2EA7DB"/>
</linearGradient>
<linearGradient id="paint22_linear_202_2" x1="673.077" y1="506.113" x2="616.162" y2="764.41" gradientUnits="userSpaceOnUse">
<stop stop-color="#9EFF00"/>
<stop offset="1" stop-color="#2EA7DB"/>
</linearGradient>
<linearGradient id="paint23_linear_202_2" x1="312.771" y1="691.53" x2="257.854" y2="880.711" gradientUnits="userSpaceOnUse">
<stop stop-color="#9EFF00"/>
<stop offset="1" stop-color="#2EA7DB"/>
</linearGradient>
<linearGradient id="paint24_linear_202_2" x1="312.771" y1="691.53" x2="257.854" y2="880.711" gradientUnits="userSpaceOnUse">
<stop stop-color="#9EFF00"/>
<stop offset="1" stop-color="#2EA7DB"/>
</linearGradient>
<linearGradient id="paint25_linear_202_2" x1="312.771" y1="691.53" x2="257.854" y2="880.711" gradientUnits="userSpaceOnUse">
<stop stop-color="#9EFF00"/>
<stop offset="1" stop-color="#2EA7DB"/>
</linearGradient>
<linearGradient id="paint26_linear_202_2" x1="312.771" y1="691.53" x2="257.854" y2="880.711" gradientUnits="userSpaceOnUse">
<stop stop-color="#9EFF00"/>
<stop offset="1" stop-color="#2EA7DB"/>
</linearGradient>
<linearGradient id="paint27_linear_202_2" x1="164.587" y1="730.966" x2="210.232" y2="867.297" gradientUnits="userSpaceOnUse">
<stop stop-color="#9EFF00"/>
<stop offset="1" stop-color="#2EA7DB"/>
</linearGradient>
<linearGradient id="paint28_linear_202_2" x1="164.587" y1="730.966" x2="210.232" y2="867.297" gradientUnits="userSpaceOnUse">
<stop stop-color="#9EFF00"/>
<stop offset="1" stop-color="#2EA7DB"/>
</linearGradient>
<linearGradient id="paint29_linear_202_2" x1="287.875" y1="772.593" x2="258.79" y2="857.794" gradientUnits="userSpaceOnUse">
<stop stop-color="#9EFF00"/>
<stop offset="1" stop-color="#2EA7DB"/>
</linearGradient>
<linearGradient id="paint30_linear_202_2" x1="287.875" y1="772.593" x2="258.79" y2="857.794" gradientUnits="userSpaceOnUse">
<stop stop-color="#9EFF00"/>
<stop offset="1" stop-color="#2EA7DB"/>
</linearGradient>
<linearGradient id="paint31_linear_202_2" x1="257.291" y1="654.541" x2="325.646" y2="890.012" gradientUnits="userSpaceOnUse">
<stop stop-color="#9EFF00"/>
<stop offset="1" stop-color="#2EA7DB"/>
</linearGradient>
<linearGradient id="paint32_linear_202_2" x1="257.291" y1="654.541" x2="325.646" y2="890.012" gradientUnits="userSpaceOnUse">
<stop stop-color="#9EFF00"/>
<stop offset="1" stop-color="#2EA7DB"/>
</linearGradient>
<linearGradient id="paint33_linear_202_2" x1="257.291" y1="654.541" x2="325.646" y2="890.012" gradientUnits="userSpaceOnUse">
<stop stop-color="#9EFF00"/>
<stop offset="1" stop-color="#2EA7DB"/>
</linearGradient>
<linearGradient id="paint34_linear_202_2" x1="257.291" y1="654.541" x2="325.646" y2="890.012" gradientUnits="userSpaceOnUse">
<stop stop-color="#9EFF00"/>
<stop offset="1" stop-color="#2EA7DB"/>
</linearGradient>
<linearGradient id="paint35_linear_202_2" x1="441.733" y1="703.626" x2="384.92" y2="873.315" gradientUnits="userSpaceOnUse">
<stop stop-color="#9EFF00"/>
<stop offset="1" stop-color="#2EA7DB"/>
</linearGradient>
<linearGradient id="paint36_linear_202_2" x1="441.733" y1="703.626" x2="384.92" y2="873.315" gradientUnits="userSpaceOnUse">
<stop stop-color="#9EFF00"/>
<stop offset="1" stop-color="#2EA7DB"/>
</linearGradient>
<linearGradient id="paint37_linear_202_2" x1="288.28" y1="755.439" x2="324.481" y2="861.486" gradientUnits="userSpaceOnUse">
<stop stop-color="#9EFF00"/>
<stop offset="1" stop-color="#2EA7DB"/>
</linearGradient>
<linearGradient id="paint38_linear_202_2" x1="288.28" y1="755.439" x2="324.481" y2="861.486" gradientUnits="userSpaceOnUse">
<stop stop-color="#9EFF00"/>
<stop offset="1" stop-color="#2EA7DB"/>
</linearGradient>
</defs>
</svg>
