<svg width="120" height="23" viewBox="0 0 120 23" fill="none" xmlns="http://www.w3.org/2000/svg">
<path opacity="0.3" d="M29 7L29 22" stroke="black" stroke-width="0.3" stroke-miterlimit="2"/>
<path d="M35.7244 10.2628V9.09091H43.9062V10.2628H40.4759V20H39.1548V10.2628H35.7244ZM45.945 20V9.09091H52.5289V10.2628H47.2661V13.9489H52.1879V15.1207H47.2661V18.8281H52.6141V20H45.945ZM60.8758 11.8182C60.8119 11.2784 60.5526 10.8594 60.0981 10.5611C59.6436 10.2628 59.086 10.1136 58.4255 10.1136C57.9426 10.1136 57.52 10.1918 57.1578 10.348C56.7991 10.5043 56.5186 10.7191 56.3161 10.9925C56.1173 11.266 56.0178 11.5767 56.0178 11.9247C56.0178 12.2159 56.0871 12.4663 56.2256 12.6758C56.3676 12.8817 56.5487 13.054 56.7689 13.1925C56.9891 13.3274 57.2199 13.4393 57.4614 13.5281C57.7029 13.6133 57.9248 13.6825 58.1272 13.7358L59.2352 14.0341C59.5193 14.1087 59.8353 14.2116 60.1833 14.343C60.5349 14.4744 60.8705 14.6538 61.1901 14.881C61.5132 15.1048 61.7796 15.3924 61.9891 15.744C62.1986 16.0955 62.3034 16.527 62.3034 17.0384C62.3034 17.6278 62.1489 18.1605 61.8399 18.6364C61.5345 19.1122 61.0871 19.4904 60.4976 19.771C59.9117 20.0515 59.1997 20.1918 58.3616 20.1918C57.5803 20.1918 56.9039 20.0657 56.3321 19.8136C55.7639 19.5614 55.3165 19.2099 54.9898 18.7589C54.6666 18.3079 54.4838 17.7841 54.4411 17.1875H55.8048C55.8403 17.5994 55.9788 17.9403 56.2203 18.2102C56.4653 18.4766 56.7742 18.6754 57.1471 18.8068C57.5235 18.9347 57.9284 18.9986 58.3616 18.9986C58.8659 18.9986 59.3186 18.9169 59.7199 18.7536C60.1212 18.5866 60.439 18.3558 60.6734 18.0611C60.9078 17.7628 61.0249 17.4148 61.0249 17.017C61.0249 16.6548 60.9237 16.3601 60.7213 16.1328C60.5189 15.9055 60.2526 15.7209 59.9223 15.5788C59.5921 15.4368 59.2352 15.3125 58.8517 15.206L57.5093 14.8224C56.657 14.5774 55.9823 14.2276 55.4852 13.7731C54.988 13.3185 54.7394 12.7237 54.7394 11.9886C54.7394 11.3778 54.9046 10.8452 55.2348 10.3906C55.5686 9.93253 56.0161 9.57741 56.5771 9.32528C57.1418 9.0696 57.7721 8.94176 58.4681 8.94176C59.1713 8.94176 59.7963 9.06783 60.3431 9.31996C60.89 9.56854 61.3232 9.90945 61.6428 10.3427C61.966 10.7759 62.1365 11.2678 62.1542 11.8182H60.8758ZM63.8787 10.2628V9.09091H72.0605V10.2628H68.6301V20H67.3091V10.2628H63.8787ZM74.0993 20V9.09091H77.7854C78.6412 9.09091 79.3408 9.24538 79.8841 9.55433C80.431 9.85973 80.8358 10.2734 81.0986 10.7955C81.3614 11.3175 81.4928 11.8999 81.4928 12.5426C81.4928 13.1854 81.3614 13.7695 81.0986 14.2951C80.8394 14.8207 80.4381 15.2397 79.8948 15.5522C79.3515 15.8612 78.6555 16.0156 77.8067 16.0156H75.1647V14.8438H77.7641C78.3501 14.8438 78.8206 14.7425 79.1757 14.5401C79.5308 14.3377 79.7883 14.0643 79.9481 13.7198C80.1114 13.3718 80.1931 12.9794 80.1931 12.5426C80.1931 12.1058 80.1114 11.7152 79.9481 11.3707C79.7883 11.0263 79.529 10.7564 79.1704 10.5611C78.8117 10.3622 78.3358 10.2628 77.7428 10.2628H75.4204V20H74.0993ZM92.8254 14.5455C92.8254 15.696 92.6176 16.6903 92.2021 17.5284C91.7867 18.3665 91.2167 19.0128 90.4923 19.4673C89.7678 19.9219 88.9404 20.1491 88.01 20.1491C87.0796 20.1491 86.2522 19.9219 85.5278 19.4673C84.8034 19.0128 84.2334 18.3665 83.8179 17.5284C83.4024 16.6903 83.1947 15.696 83.1947 14.5455C83.1947 13.3949 83.4024 12.4006 83.8179 11.5625C84.2334 10.7244 84.8034 10.0781 85.5278 9.62358C86.2522 9.16903 87.0796 8.94176 88.01 8.94176C88.9404 8.94176 89.7678 9.16903 90.4923 9.62358C91.2167 10.0781 91.7867 10.7244 92.2021 11.5625C92.6176 12.4006 92.8254 13.3949 92.8254 14.5455ZM91.547 14.5455C91.547 13.6009 91.3889 12.8036 91.0729 12.1538C90.7604 11.5039 90.336 11.0121 89.7998 10.6783C89.2671 10.3445 88.6705 10.1776 88.01 10.1776C87.3495 10.1776 86.7512 10.3445 86.2149 10.6783C85.6823 11.0121 85.2579 11.5039 84.9419 12.1538C84.6294 12.8036 84.4731 13.6009 84.4731 14.5455C84.4731 15.4901 84.6294 16.2873 84.9419 16.9371C85.2579 17.587 85.6823 18.0788 86.2149 18.4126C86.7512 18.7464 87.3495 18.9134 88.01 18.9134C88.6705 18.9134 89.2671 18.7464 89.7998 18.4126C90.336 18.0788 90.7604 17.587 91.0729 16.9371C91.3889 16.2873 91.547 15.4901 91.547 14.5455ZM96.3676 9.09091V20H95.0466V9.09091H96.3676ZM107.667 9.09091V20H106.388L100.444 11.4347H100.337V20H99.0163V9.09091H100.295L106.261 17.6776H106.367V9.09091H107.667ZM109.714 10.2628V9.09091H117.896V10.2628H114.465V20H113.144V10.2628H109.714Z" fill="black"/>
<path d="M7.27714 0.0607033C5.19044 0.291724 3.5772 0.984787 2.1393 2.28428C0.701411 3.56933 0 5.07097 0 6.84694C0 9.57588 1.82367 11.9438 4.83974 13.1134C6.11981 13.6187 6.87383 13.7198 7.17193 13.4166C7.57524 13.0123 7.31221 12.7235 6.20749 12.4059C4.80467 11.9872 4.05065 11.5829 3.17388 10.7887C0.613735 8.50741 0.66634 5.04209 3.2791 2.83295C7.01411 -0.329145 13.3619 0.927032 15.0803 5.18648C15.431 6.05281 15.5012 6.125 15.9396 6.08169C16.3604 6.03837 16.3955 5.98061 16.3779 5.38862C16.3779 4.95546 16.1851 4.43566 15.7993 3.80035C14.2036 1.18693 10.7491 -0.329145 7.27714 0.0607033Z" fill="black"/>
<path d="M6.75108 1.98106C4.29614 2.6308 2.54261 4.26239 2.19191 6.26938C1.98148 7.48224 2.61275 9.20046 3.64733 10.2256C5.05016 11.6117 7.89087 12.4492 7.89087 11.4818C7.89087 11.1353 7.66291 10.9909 6.6634 10.6877C4.78713 10.1101 3.6824 8.86837 3.54212 7.17903C3.47198 6.19719 3.50705 6.03836 4.03311 5.1576C5.08523 3.39606 7.32974 2.52973 9.60933 3.02065C11.2752 3.38162 12.3799 4.21907 13.0462 5.63408C13.3268 6.22607 13.5372 6.48597 13.7827 6.51484C15.3083 6.70255 14.0107 3.94474 12.0117 2.77519C10.5036 1.87999 8.34679 1.56233 6.75108 1.98106Z" fill="black"/>
<path d="M8.50461 5.51857C7.207 5.77847 6.48805 6.51485 6.48805 7.56888C6.50559 8.39189 6.6634 8.60847 8.29419 9.98016C9.03067 10.6155 9.6444 11.2075 9.6444 11.3085C9.6444 11.3952 9.48658 11.6551 9.31123 11.8716C9.11834 12.0882 8.92545 12.5214 8.85531 12.8246C8.78517 13.1567 8.50461 13.5899 8.22404 13.8353C7.68045 14.3262 7.36482 14.9038 7.36482 15.438C7.36482 15.6691 7.17193 15.9434 6.83876 16.16C6.20749 16.6076 5.87432 17.445 6.03213 18.1814C6.18995 18.8023 7.47003 19.9429 9.2937 21.0403C12.187 22.8018 14.7647 23.3794 16.9215 22.7585C17.623 22.5564 18.2542 22.1376 19.9551 20.7804C21.13 19.8274 22.2523 18.86 22.4452 18.6146C22.9186 17.9793 23.1115 16.7375 22.9361 15.438C22.7608 14.0808 20.4637 8.27638 19.8675 7.69883C18.2367 6.09612 15.2557 6.96245 15.2557 9.0272V9.64807L12.941 7.74215C11.5382 6.60148 10.3458 5.74959 9.96004 5.6052C9.24109 5.37418 9.27616 5.37418 8.50461 5.51857ZM13.0112 9.30154C15.6415 11.5107 16.3779 12.0449 16.6936 12.0016C17.2547 11.9438 17.2898 11.4385 16.8339 10.0235C16.5182 9.07052 16.4832 8.82506 16.676 8.53628C16.7813 8.36301 16.9741 8.16087 17.0794 8.10312C17.4476 7.90097 18.3419 7.9876 18.7101 8.27638C19.2537 8.68067 21.5333 14.4129 21.6736 15.7412C21.884 17.5172 21.7963 17.6616 19.4992 19.582C16.904 21.7334 16.5884 21.9066 15.0803 21.8922C13.0638 21.8777 10.679 20.8526 8.46954 19.0622C7.59277 18.3547 7.36482 18.0803 7.36482 17.7338C7.38235 16.8819 8.08376 16.5354 8.67996 17.0841C9.03067 17.4161 9.46905 17.4595 9.78468 17.1996C10.1179 16.9252 10.0302 16.6798 9.38137 16.2033C8.73257 15.7124 8.59228 15.1926 9.01313 14.7305C9.31123 14.3984 9.69701 14.4129 10.0828 14.7738C10.5036 15.1637 10.942 15.1348 11.1875 14.7161C11.3453 14.4129 11.2927 14.3118 10.7667 13.8931C10.1529 13.4022 10.0302 12.9546 10.3458 12.4492C10.6088 12.0593 10.8719 12.1027 11.4505 12.608C11.7311 12.839 12.0467 13.0412 12.1695 13.0412C12.4676 13.0412 12.8008 12.738 12.8008 12.4781C12.8008 12.3626 11.661 11.3085 10.2581 10.1534C7.52263 7.87209 7.38235 7.65551 8.08376 6.91913C8.34679 6.6448 8.60982 6.54372 9.08327 6.54372C9.69701 6.54372 9.92497 6.70255 13.0112 9.30154Z" fill="black"/>
</svg>
