<?xml version="1.0" standalone="no"?>
<!DOCTYPE svg PUBLIC "-//W3C//DTD SVG 20010904//EN"
 "http://www.w3.org/TR/2001/REC-SVG-20010904/DTD/svg10.dtd">
<svg version="1.0" xmlns="http://www.w3.org/2000/svg"
 width="300.000000pt" height="300.000000pt" viewBox="0 0 300.000000 300.000000"
 preserveAspectRatio="xMidYMid meet">

<g transform="translate(0.000000,300.000000) scale(0.100000,-0.100000)"
fill="#000000" stroke="none">
<path d="M1285 2299 c-119 -16 -211 -64 -293 -154 -82 -89 -122 -193 -122
-316 0 -189 104 -353 276 -434 73 -35 116 -42 133 -21 23 28 8 48 -55 70 -80
29 -123 57 -173 112 -146 158 -143 398 6 551 213 219 575 132 673 -163 20 -60
24 -65 49 -62 24 3 26 7 25 48 0 30 -11 66 -33 110 -91 181 -288 286 -486 259z"/>
<path d="M1255 2166 c-140 -45 -240 -158 -260 -297 -12 -84 24 -203 83 -274
80 -96 242 -154 242 -87 0 24 -13 34 -70 55 -107 40 -170 126 -178 243 -4 68
-2 79 28 140 60 122 188 182 318 148 95 -25 158 -83 196 -181 16 -41 28 -59
42 -61 87 -13 13 178 -101 259 -86 62 -209 84 -300 55z"/>
<path d="M1355 1921 c-74 -18 -115 -69 -115 -142 1 -57 10 -72 103 -167 42
-44 77 -85 77 -92 0 -6 -9 -24 -19 -39 -11 -15 -22 -45 -26 -66 -4 -23 -20
-53 -36 -70 -31 -34 -49 -74 -49 -111 0 -16 -11 -35 -30 -50 -36 -31 -55 -89
-46 -140 9 -43 82 -122 186 -198 165 -122 312 -162 435 -119 40 14 76 43 173
137 67 66 131 133 142 150 27 44 38 130 28 220 -10 94 -141 496 -175 536 -93
111 -263 51 -263 -92 l0 -43 -132 132 c-80 79 -148 138 -170 148 -41 16 -39
16 -83 6z m257 -262 c150 -153 192 -190 210 -187 32 4 34 39 8 137 -18 66 -20
83 -9 103 6 12 17 26 23 30 21 14 72 8 93 -12 31 -28 161 -425 169 -517 12
-123 7 -133 -124 -266 -148 -149 -166 -161 -252 -160 -115 1 -251 72 -377 196
-50 49 -63 68 -63 92 1 59 41 83 75 45 20 -23 45 -26 63 -8 19 19 14 36 -23
69 -37 34 -45 70 -21 102 17 23 39 22 61 -3 24 -27 49 -25 63 4 9 21 6 28 -24
57 -35 34 -42 65 -24 100 15 27 30 24 63 -11 16 -16 34 -30 41 -30 17 0 36 21
36 39 0 8 -65 81 -145 161 -156 158 -164 173 -124 224 15 19 30 26 57 26 35 0
48 -11 224 -191z"/>
</g>
</svg>
