<?xml version="1.0" standalone="no"?>
<!DOCTYPE svg PUBLIC "-//W3C//DTD SVG 20010904//EN"
 "http://www.w3.org/TR/2001/REC-SVG-20010904/DTD/svg10.dtd">
<svg version="1.0" xmlns="http://www.w3.org/2000/svg"
 width="700.000000pt" height="700.000000pt" viewBox="0 0 700.000000 700.000000"
 preserveAspectRatio="xMidYMid meet">
<metadata>
Created by potrace 1.14, written by Peter Selinger 2001-2017
</metadata>
<g transform="translate(0.000000,700.000000) scale(0.100000,-0.100000)"
fill="#000000" stroke="none">
<path d="M2348 6995 c-1 -1 -34 -5 -73 -9 -313 -26 -624 -100 -895 -213 -500
-209 -982 -634 -1188 -1048 -104 -210 -147 -349 -180 -590 -8 -64 -8 -374 1
-440 9 -71 33 -195 48 -246 7 -24 13 -48 15 -54 15 -66 111 -292 158 -370 115
-195 221 -330 373 -475 227 -217 477 -377 804 -516 71 -30 326 -121 362 -129
36 -8 120 -26 146 -31 116 -23 219 -2 274 58 71 77 48 146 -68 205 -27 15
-156 61 -285 103 -273 90 -405 146 -549 233 -199 120 -427 322 -567 502 -166
215 -291 507 -321 750 -9 78 -10 282 0 366 11 106 61 288 111 405 40 96 141
272 188 329 9 11 39 47 66 80 212 260 554 494 907 623 109 40 358 105 445 117
25 3 61 8 80 11 80 10 212 18 320 18 114 0 317 -11 329 -18 3 -2 29 -6 56 -10
28 -3 61 -8 75 -11 109 -21 145 -30 220 -50 173 -49 278 -90 455 -177 306
-152 579 -391 766 -668 55 -82 58 -88 119 -209 28 -55 50 -104 50 -110 0 -6 4
-19 10 -29 5 -9 27 -55 48 -102 60 -131 97 -154 222 -138 73 10 109 38 111 86
4 73 2 152 -4 197 -14 104 -86 278 -168 406 -22 33 -39 62 -39 64 0 3 -21 33
-47 67 -169 226 -356 403 -588 559 -106 72 -133 86 -320 179 -198 98 -496 200
-661 226 -21 3 -42 8 -45 10 -8 5 -87 17 -259 40 -47 6 -496 15 -502 9z"/>
<path d="M2528 6456 c-1 -2 -59 -6 -128 -9 -69 -4 -134 -8 -145 -11 -11 -2
-40 -7 -65 -11 -67 -10 -191 -42 -288 -75 -675 -223 -1141 -702 -1238 -1275
-12 -72 -7 -248 11 -345 45 -248 180 -540 338 -735 48 -59 158 -167 207 -204
19 -14 37 -29 40 -32 3 -4 50 -36 105 -72 276 -179 586 -295 805 -302 124 -4
158 4 200 47 30 29 32 36 28 85 -8 93 -67 132 -328 217 -324 105 -511 211
-681 386 -154 158 -251 348 -295 578 -18 88 -25 382 -11 430 15 56 22 72 64
157 113 226 249 393 433 531 137 103 329 197 502 244 102 28 88 25 293 55 41
6 257 6 330 0 53 -5 86 -10 202 -31 281 -51 578 -197 760 -373 131 -127 199
-222 308 -435 83 -161 139 -234 191 -250 82 -25 167 -4 202 48 114 168 -143
640 -513 942 -240 195 -560 333 -925 398 -130 23 -147 25 -265 32 -60 3 -115
7 -122 9 -6 2 -13 2 -15 1z"/>
<path d="M2645 5330 c-134 -26 -135 -26 -205 -50 -133 -46 -221 -99 -305 -184
-81 -83 -127 -172 -152 -296 -11 -53 -5 -198 10 -258 33 -124 126 -232 412
-478 240 -206 300 -259 417 -376 82 -81 108 -113 108 -132 0 -28 -25 -72 -97
-169 -61 -84 -95 -154 -132 -273 -42 -136 -88 -210 -205 -331 -176 -182 -238
-294 -252 -451 -9 -103 -57 -181 -147 -239 -133 -85 -238 -255 -265 -428 -34
-215 40 -342 358 -620 281 -246 855 -597 1272 -779 212 -92 542 -196 702 -220
21 -4 41 -8 45 -10 3 -2 33 -7 66 -11 33 -4 71 -9 85 -11 53 -10 408 -11 470
-3 36 5 83 12 105 15 22 3 78 14 125 25 230 55 360 126 695 377 200 151 576
454 691 557 6 6 33 28 59 50 27 22 53 45 59 50 6 6 54 49 106 95 159 142 199
193 247 319 59 157 83 326 78 566 -2 99 -6 189 -8 200 -3 11 -8 40 -12 65 -62
394 -662 1932 -881 2261 -37 56 -166 179 -187 179 -3 0 -28 13 -56 29 -123 73
-289 111 -456 106 -132 -4 -166 -10 -265 -42 -253 -82 -424 -259 -476 -493 -4
-19 -9 -91 -10 -160 -1 -69 -3 -129 -3 -133 -1 -9 -35 17 -182 138 -53 44
-112 92 -130 107 -19 14 -45 36 -59 48 -46 39 -65 55 -145 120 -44 36 -82 68
-85 71 -5 5 -286 230 -351 281 -19 14 -70 54 -114 87 -44 33 -84 64 -90 68
-60 46 -259 186 -330 231 -56 35 -169 83 -239 102 -95 24 -150 24 -271 0z m30
-330 c3 -5 1 -10 -4 -10 -6 0 -11 5 -11 10 0 6 2 10 4 10 3 0 8 -4 11 -10z
m222 -12 c45 -16 161 -84 203 -119 14 -11 -35 10 -109 48 -130 65 -138 68
-218 72 -46 1 -83 7 -83 11 0 13 163 4 207 -12z m-292 -12 c-11 -7 -33 -16
-50 -19 -26 -5 -25 -4 10 13 46 23 68 26 40 6z m-184 -134 c-5 -10 -18 -25
-27 -33 -11 -9 -9 -2 6 19 26 35 36 42 21 14z m869 -115 c35 -24 18 -21 -25 4
-19 12 -40 31 -47 43 -9 18 -7 18 18 -5 16 -14 40 -33 54 -42z m-926 -24 c-7
-39 -14 -42 -14 -5 0 18 4 32 9 32 5 0 7 -12 5 -27z m1076 -100 c65 -53 582
-485 590 -493 3 -3 30 -25 60 -50 30 -25 57 -47 60 -50 6 -6 113 -94 165 -136
11 -8 13 -12 5 -8 -26 13 -162 116 -233 176 -63 53 -122 92 -130 86 -2 -2 -36
26 -76 62 -40 36 -101 89 -135 119 -33 30 -77 68 -96 85 -19 17 -51 44 -70 60
-78 64 -210 189 -210 199 0 6 10 1 23 -10 12 -11 33 -29 47 -40z m-1035 0 c11
-14 25 -31 31 -37 6 -6 28 -33 49 -61 20 -27 63 -76 94 -108 91 -94 71 -86
-26 10 -90 89 -151 159 -172 201 -16 31 0 28 24 -5z m3109 -48 c54 -11 135
-43 167 -66 54 -38 162 -225 269 -468 21 -47 49 -111 63 -141 21 -46 57 -132
183 -439 12 -29 12 -32 0 -22 -8 7 -26 42 -41 79 -14 37 -32 72 -40 77 -7 6
-18 30 -24 53 -7 23 -23 64 -36 91 -14 27 -25 58 -25 68 0 11 -11 25 -23 32
-24 13 -57 95 -72 181 -7 34 -84 189 -110 220 -7 8 -18 33 -25 55 -14 45 -74
141 -105 168 -60 53 -222 111 -305 110 -54 -1 -169 -30 -207 -53 -43 -25 -51
-25 -29 -1 22 24 79 52 120 58 17 3 32 6 34 8 5 5 175 -3 206 -10z m-424 -181
c-22 -63 -26 -129 -10 -166 13 -32 88 -278 94 -308 5 -26 14 -66 40 -181 20
-87 19 -77 17 -133 -1 -59 -9 -56 -17 5 -9 67 -47 217 -103 396 -83 270 -88
328 -35 416 36 58 41 47 14 -29z m-2245 -224 c10 -11 16 -20 13 -20 -3 0 -13
9 -23 20 -10 11 -16 20 -13 20 3 0 13 -9 23 -20z m65 -50 c3 -3 43 -34 90 -70
47 -35 86 -67 88 -71 2 -6 172 -154 207 -181 25 -20 98 -90 80 -77 -19 13
-134 108 -145 119 -3 3 -57 48 -120 100 -156 129 -272 231 -225 199 11 -8 22
-16 25 -19z m768 -660 c24 -23 42 -43 40 -45 -2 -1 -39 31 -83 73 -44 41 -62
61 -40 44 22 -17 59 -49 83 -72z m1549 68 c-3 -8 -6 -5 -6 6 -1 11 2 17 5 13
3 -3 4 -12 1 -19z m-2 -58 c-1 -12 -12 -31 -25 -43 l-23 -22 17 25 c9 13 16
32 16 42 0 10 4 18 8 18 5 0 8 -9 7 -20z m-230 -81 c45 -21 106 -24 138 -8 17
9 20 9 10 -1 -29 -31 -100 -28 -168 7 -42 22 -135 83 -135 89 0 2 26 -12 58
-32 31 -21 75 -45 97 -55z m-1234 -6 l24 -26 -27 19 c-15 10 -28 22 -28 27 0
12 5 8 31 -20z m-429 -92 c24 -11 74 -44 111 -74 37 -30 78 -62 90 -71 66 -48
65 -47 20 -32 -65 23 -85 36 -132 88 -47 53 -81 75 -121 78 -62 5 -82 -1 -127
-42 l-47 -43 30 42 c52 74 97 88 176 54z m563 -52 c14 -26 14 -32 -4 -66 -38
-76 -105 -127 -171 -131 -31 -1 -30 0 13 12 62 17 116 61 144 116 l23 43 -22
35 c-12 20 -16 32 -10 28 7 -4 19 -20 27 -37z m-772 -239 c7 -13 27 -37 44
-53 18 -16 42 -45 54 -65 19 -33 49 -62 212 -204 l38 -33 -20 -69 c-11 -37
-28 -79 -36 -93 -27 -41 -110 -73 -187 -73 -85 0 -103 7 -169 70 -83 80 -119
100 -178 104 -52 3 -53 3 -114 -54 l-61 -58 1 -89 c1 -93 16 -146 50 -179 11
-10 23 -28 27 -39 13 -37 -49 32 -79 88 -33 60 -41 143 -19 196 23 55 80 117
130 141 80 39 162 16 262 -74 59 -53 100 -70 169 -70 54 -1 66 3 99 30 21 17
49 52 62 78 39 78 23 109 -118 227 -35 30 -75 67 -89 83 -13 15 -31 34 -38 41
-26 27 -63 114 -62 146 2 34 2 34 6 4 2 -16 9 -41 16 -55z m3317 -196 c0 -2
-7 -1 -15 2 -9 4 -15 19 -15 38 l1 31 14 -34 c8 -18 15 -35 15 -37z m29 -94
c0 -13 -1 -13 -8 0 -5 8 -12 26 -15 40 l-7 25 15 -25 c9 -14 15 -32 15 -40z
m116 -410 c3 -14 8 -52 11 -85 4 -33 8 -63 10 -67 3 -4 6 -69 8 -145 5 -144
-7 -228 -40 -298 -24 -52 -28 -37 -4 18 17 37 21 71 24 189 1 79 -1 159 -6
178 -4 19 -10 80 -14 135 -3 55 -12 125 -20 156 -8 31 -14 65 -13 75 1 17 31
-92 44 -156z m-3700 -218 c16 -13 41 -31 54 -40 13 -9 44 -36 68 -60 39 -38
43 -47 43 -90 -1 -42 -6 -53 -46 -96 -24 -27 -47 -46 -51 -43 -3 4 9 18 26 33
27 23 62 73 61 89 0 3 -7 21 -15 41 -17 40 -72 98 -158 163 -31 24 -57 45 -57
47 0 6 41 -18 75 -44z m-465 -185 c0 -2 -23 -18 -51 -36 -83 -54 -112 -116
-111 -233 0 -36 10 -66 41 -125 32 -60 36 -71 16 -48 -54 64 -69 105 -68 187
0 56 6 89 22 121 25 52 75 105 116 123 34 15 35 15 35 11z m125 -16 c22 -10
69 -40 104 -67 35 -26 87 -56 115 -66 l51 -17 -42 -1 c-23 0 -48 6 -55 13 -24
24 -152 111 -198 134 -53 27 -33 31 25 4z m3936 -324 c-10 -9 -11 -8 -5 6 3
10 9 15 12 12 3 -3 0 -11 -7 -18z m-171 -173 c-74 -69 -87 -69 -17 0 32 32 61
56 63 53 3 -3 -18 -27 -46 -53z m-3885 -19 c28 -23 64 -50 80 -60 17 -10 53
-39 80 -65 28 -25 88 -76 135 -112 90 -69 145 -123 80 -78 -107 74 -320 246
-410 330 -54 51 -34 42 35 -15z m3804 -58 c-2 -2 -61 -52 -131 -110 -70 -59
-129 -107 -133 -107 -3 0 4 14 17 30 12 17 27 30 32 30 13 0 139 100 179 142
16 16 31 27 35 24 3 -3 3 -7 1 -9z m-294 -247 c-10 -11 -23 -20 -28 -20 -6 0
0 9 13 20 13 11 25 20 28 20 3 0 -3 -9 -13 -20z m-105 -84 c0 -2 -8 -10 -17
-17 -16 -13 -17 -12 -4 4 13 16 21 21 21 13z m-77 -64 c-64 -57 -183 -149
-143 -111 40 39 172 148 180 148 3 0 -14 -16 -37 -37z m-2748 0 c-3 -3 -11 0
-18 7 -9 10 -8 11 6 5 10 -3 15 -9 12 -12z m355 -199 c49 -26 87 -49 85 -51
-3 -4 -75 32 -145 72 -76 44 -33 29 60 -21z m165 -85 c5 -5 -5 -3 -23 3 -18 6
-35 15 -38 20 -6 10 45 -10 61 -23z m125 -53 c14 -8 21 -14 15 -14 -5 0 -21 6
-35 14 -14 8 -20 14 -15 14 6 0 21 -6 35 -14z m665 -190 c5 -3 -10 -2 -35 1
-67 8 -154 26 -163 34 -8 7 179 -26 198 -35z m115 -15 c18 -12 2 -12 -25 0
-13 6 -15 9 -5 9 8 0 22 -4 30 -9z"/>
</g>
</svg>
